<?xml version="1.0" standalone="no"?>
<!DOCTYPE svg PUBLIC "-//W3C//DTD SVG 20010904//EN"
 "http://www.w3.org/TR/2001/REC-SVG-20010904/DTD/svg10.dtd">
<svg version="1.0" xmlns="http://www.w3.org/2000/svg"
 width="740.000000pt" height="740.000000pt" viewBox="0 0 740.000000 740.000000"
 preserveAspectRatio="xMidYMid meet">
<metadata>
Created by potrace 1.11, written by Peter Selinger 2001-2013
</metadata>
<g transform="translate(0.000000,740.000000) scale(0.100000,-0.100000)"
fill="#000000" stroke="none">
<path d="M2039 6405 c-3 -2 -32 -7 -64 -10 -80 -8 -252 -66 -345 -116 -203
-109 -377 -290 -475 -493 -44 -92 -80 -192 -90 -255 -3 -19 -8 -37 -10 -41 -2
-4 -7 -50 -11 -102 l-6 -95 271 -1 271 -1 1 27 c2 90 52 236 101 302 69 91
178 176 268 209 108 39 85 39 1745 39 882 0 1620 -4 1641 -8 166 -36 261 -92
359 -215 44 -55 91 -142 102 -190 2 -11 7 -33 11 -50 3 -16 6 -70 6 -120 0
-254 -169 -471 -427 -547 -32 -9 -273 -13 -977 -14 -1080 -2 -1067 -1 -1229
-50 -399 -121 -684 -432 -777 -849 -17 -74 -18 -177 -20 -1457 l-2 -1378 804
0 804 0 0 1370 0 1370 -102 1 c-308 2 -430 1 -435 -4 -3 -3 -5 -498 -5 -1100
l0 -1095 -262 0 -261 0 0 1071 c1 1176 -2 1123 63 1256 79 162 230 277 414
311 28 6 453 10 1001 11 775 0 967 3 1031 14 434 78 776 393 891 822 25 93 27
106 30 248 4 156 -9 253 -51 380 -90 272 -291 507 -546 639 -75 39 -172 76
-239 92 -133 32 -166 33 -1825 33 -908 1 -1653 -1 -1655 -4z"/>
<path d="M2130 5507 c-65 -17 -134 -81 -158 -147 -33 -93 -7 -196 67 -262 71
-65 6 -62 1246 -62 l1130 0 44 23 c116 61 163 175 124 306 -10 35 -73 105
-116 128 l-42 22 -1130 1 c-655 0 -1145 -3 -1165 -9z"/>
<path d="M5122 5501 c-59 -20 -92 -48 -130 -106 -22 -34 -26 -52 -27 -115 0
-64 4 -82 27 -121 48 -81 126 -123 224 -121 134 2 234 108 234 246 0 162 -168
274 -328 217z"/>
</g>
</svg>
